<?xml version="1.0" standalone="no"?><!DOCTYPE svg PUBLIC "-//W3C//DTD SVG 1.1//EN" "http://www.w3.org/Graphics/SVG/1.1/DTD/svg11.dtd"><svg t="1627199930767" class="icon" viewBox="0 0 1024 1024" version="1.1" xmlns="http://www.w3.org/2000/svg" p-id="2915" xmlns:xlink="http://www.w3.org/1999/xlink" width="200" height="200"><defs><style type="text/css">@font-face { font-family: feedback-iconfont; src: url("//at.alicdn.com/t/font_1031158_1uhr8ri0pk5.eot?#iefix") format("embedded-opentype"), url("//at.alicdn.com/t/font_1031158_1uhr8ri0pk5.woff2") format("woff2"), url("//at.alicdn.com/t/font_1031158_1uhr8ri0pk5.woff") format("woff"), url("//at.alicdn.com/t/font_1031158_1uhr8ri0pk5.ttf") format("truetype"), url("//at.alicdn.com/t/font_1031158_1uhr8ri0pk5.svg#iconfont") format("svg"); }
</style></defs><path d="M512 51.2c254.506667 0 460.8 206.293333 460.8 460.8 0 254.506667-206.293333 460.8-460.8 460.8-254.506667 0-460.8-206.293333-460.8-460.8C51.2 257.493333 257.493333 51.2 512 51.2z m-10.581333 412.202667a26.88 26.88 0 0 0-38.016 0c-47.125333 47.146667-48.149333 122.922667-1.749334 169.301333l0.896 0.853333 0.853334 0.917334 122.837333 122.837333 3.84 3.648c46.634667 42.645333 119.616 40.448 165.461333-5.418667 47.146667-47.125333 48.149333-122.922667 1.770667-169.301333l-106.666667-106.645333-2.176-1.962667a26.88 26.88 0 0 0-35.84 39.978667l106.666667 106.666666 2.773333 2.965334c22.293333 25.365333 20.8 64.96-4.522666 90.304-26.368 26.346667-68.138667 26.901333-93.290667 1.749333l-122.837333-122.837333-1.024-0.96-0.725334-0.810667c-25.173333-25.152-24.597333-66.922667 1.749334-93.269333a26.88 26.88 0 0 0 0-38.016z m-66.986667-199.424c-46.613333-42.624-119.616-40.426667-165.461333 5.418666-47.146667 47.146667-48.149333 122.922667-1.770667 169.301334l106.666667 106.666666 2.176 1.962667a26.88 26.88 0 0 0 35.84-39.978667l-106.666667-106.666666-2.773333-2.965334c-22.293333-25.386667-20.8-64.96 4.544-90.304 26.346667-26.346667 68.117333-26.901333 93.269333-1.749333l122.837333 122.837333 2.794667 2.986667c22.293333 25.365333 20.8 64.938667-4.544 90.282667a26.88 26.88 0 1 0 38.016 38.016c47.125333-47.125333 48.128-122.922667 1.749333-169.301334l-122.837333-122.837333z" fill="#105CFB" p-id="2916"></path></svg>